<svg width="24" height="24" viewBox="0 0 24 24" fill="none" xmlns="http://www.w3.org/2000/svg">
<circle cx="5.50566" cy="18.366" r="1.88554" stroke="currentColor"/>
<circle cx="18.2293" cy="18.3662" r="1.88554" stroke="currentColor"/>
<path d="M8.68652 18.6328H15.048" stroke="currentColor" stroke-width="1.1"/>
<path d="M21.1446 18.3653H21.9398C22.5253 18.3653 23 17.8906 23 17.305V13.3851C23 13.1757 22.938 12.9711 22.8219 12.797L20.6062 9.47328C20.1146 8.73589 19.287 8.29297 18.4007 8.29297H15.5301C15.2373 8.29297 15 8.53031 15 8.82309V13.0641C15 13.6496 14.5253 14.1243 13.9398 14.1243H2.59036C1.71203 14.1243 1 14.8363 1 15.7147V17.5701C1 18.1556 1.47469 18.6303 2.06024 18.6303H2.59036" stroke="currentColor" stroke-width="1.1"/>
<path d="M17 12.4699V11.2651C17 11.1187 17.1187 11 17.2651 11H18.324C18.497 11 18.6591 11.0844 18.7583 11.2261L19.7081 12.5829C19.831 12.7586 19.7054 13 19.4909 13H17.5301C17.2373 13 17 12.7627 17 12.4699Z" stroke="currentColor" stroke-width="1.03"/>
<path d="M6.00879 8.37891L5.99982 9.6764" stroke="currentColor" stroke-width="0.583333"/>
<path d="M5.39648 11.6211H9.33398" stroke="currentColor"/>
<circle cx="3.5" cy="11.5" r="1.1" stroke="currentColor" stroke-width="0.8"/>
<circle cx="11.5" cy="11.5" r="1.1" stroke="currentColor" stroke-width="0.8"/>
<path d="M12.5423 11.6228L12.9017 11.534C13.1939 11.4617 13.3832 11.179 13.3386 10.8812L13.221 10.0965C13.1617 9.70042 12.9032 9.36245 12.5365 9.20132L9.49169 7.86346C9.29068 7.77513 9.10543 7.6546 8.94325 7.5066L7.68281 6.35635C7.43159 6.1271 7.10377 6 6.76367 6H6.06412C4.97103 6 3.9104 6.37151 3.05621 7.05357V7.05357C2.67417 7.35863 2.34076 7.72003 2.06742 8.12538L1.23686 9.35704C1.19058 9.42567 1.15025 9.49813 1.11632 9.57362L0.824104 10.2236C0.691641 10.5183 0.823874 10.8645 1.11904 10.9958L2.04232 11.4065" stroke="currentColor"/>
<path d="M9.39583 8.62798L4.17079 8.20915C4.08124 8.20197 4.01941 8.11631 4.04081 8.02905L4.5 6.15643" stroke="currentColor" stroke-width="0.8" stroke-linecap="round"/>
</svg>
