<svg width="24" height="24" viewBox="0 0 24 24" fill="none" xmlns="http://www.w3.org/2000/svg">
<rect width="0.8" height="4.8451" rx="0.4" transform="matrix(0.635483 0.772115 -0.635934 0.771744 6.70679 13.0003)" fill="currentColor"/>
<rect width="0.8" height="5.29421" rx="0.4" transform="matrix(-0.14495 0.989439 -0.998873 0.0474643 10.7478 12.8763)" fill="currentColor"/>
<rect width="0.8" height="4.81995" rx="0.4" transform="matrix(0.635483 0.772115 -0.635934 0.771744 13.6069 13.1176)" fill="currentColor"/>
<rect width="0.8" height="5.29421" rx="0.4" transform="matrix(-0.10288 0.994694 -0.995963 0.0897612 17.73 12.7631)" fill="currentColor"/>
<path d="M3.79277 8.49458C4.01183 7.38488 4.98506 6.585 6.11617 6.585H17.8856C19.0167 6.585 19.9899 7.38488 20.209 8.49459L21.539 15.232C21.5577 15.3268 21.4852 15.415 21.3886 15.415H11.897H2.61315C2.51656 15.415 2.44404 15.3268 2.46274 15.232L3.79277 8.49458Z" stroke="currentColor" stroke-width="1.17"/>
<path d="M0.45 12.8C0.45 12.0544 1.05442 11.45 1.8 11.45H2.43902L1.97236 13.55H0.9C0.651472 13.55 0.45 13.3485 0.45 13.1V12.8Z" stroke="currentColor" stroke-width="0.9"/>
<path d="M23.55 11.799C23.55 11.0534 22.9456 10.449 22.2 10.449H21.1151L21.7056 13.549H23.1C23.3485 13.549 23.55 13.3476 23.55 13.099V11.799Z" stroke="currentColor" stroke-width="0.9"/>
<rect x="8.7168" y="8" width="0.4" height="2.04062" rx="0.2" transform="rotate(50.062 8.7168 8)" fill="currentColor"/>
<rect x="9.7168" y="8" width="0.4" height="3.54453" rx="0.2" transform="rotate(50.062 9.7168 8)" fill="currentColor"/>
<rect x="10.8691" y="8" width="0.4" height="3.54453" rx="0.2" transform="rotate(50.062 10.8691 8)" fill="currentColor"/>
</svg>
