<svg width="32" height="32" viewBox="0 0 32 32" fill="none" xmlns="http://www.w3.org/2000/svg">
<rect width="32" height="32" rx="10.6667" fill="#E4F0FD"/>
<g clip-path="url(#clip0_1_1340)">
<path d="M22.592 19.28V21.28C22.5928 21.4657 22.5547 21.6495 22.4803 21.8196C22.406 21.9897 22.2969 22.1424 22.16 22.268C22.0232 22.3935 21.8617 22.489 21.6858 22.5485C21.5099 22.608 21.3236 22.6301 21.1387 22.6134C19.0872 22.3905 17.1167 21.6895 15.3853 20.5667C13.7745 19.5432 12.4089 18.1775 11.3853 16.5667C10.2586 14.8275 9.55749 12.8474 9.33866 10.7867C9.322 10.6024 9.34391 10.4166 9.403 10.2411C9.46208 10.0657 9.55704 9.9045 9.68184 9.76779C9.80664 9.63108 9.95853 9.52185 10.1279 9.44706C10.2972 9.37227 10.4802 9.33355 10.6653 9.33338H12.6653C12.9889 9.33019 13.3025 9.44476 13.5478 9.65573C13.7932 9.8667 13.9534 10.1597 13.9987 10.48C14.0831 11.1201 14.2396 11.7485 14.4653 12.3534C14.555 12.592 14.5744 12.8513 14.5213 13.1006C14.4681 13.3499 14.3446 13.5788 14.1653 13.76L13.3187 14.6067C14.2677 16.2757 15.6496 17.6577 17.3187 18.6067L18.1653 17.76C18.3466 17.5808 18.5754 17.4573 18.8247 17.4041C19.0741 17.3509 19.3334 17.3703 19.572 17.46C20.1768 17.6857 20.8053 17.8423 21.4453 17.9267C21.7692 17.9724 22.0649 18.1355 22.2764 18.385C22.4878 18.6346 22.6001 18.9531 22.592 19.28Z" stroke="#007BFF" stroke-width="1.33333" stroke-linecap="round" stroke-linejoin="round"/>
</g>
<defs>
<clipPath id="clip0_1_1340">
<rect width="16" height="16" fill="white" transform="translate(8 8)"/>
</clipPath>
</defs>
</svg>
