<svg width="216" height="56" viewBox="0 0 216 56" fill="none" xmlns="http://www.w3.org/2000/svg">
<path d="M97.6077 24.9041C96.1394 26.3879 95.4053 28.1768 95.4053 30.2719C95.4053 32.3828 96.1394 34.1794 97.6077 35.6632C99.0909 37.1311 100.888 37.8653 102.998 37.8653C105.109 37.8653 106.898 37.1311 108.366 35.6632C109.85 34.1794 110.592 32.3828 110.592 30.2719C110.592 28.1768 109.85 26.3879 108.366 24.9041C106.883 23.4208 105.094 22.6788 102.998 22.6788C100.888 22.6788 99.0909 23.4208 97.6077 24.9041ZM112.335 20.9356C114.92 23.5199 116.212 26.6321 116.212 30.2719V40.7099C116.212 41.4898 115.937 42.1401 115.386 42.6596C114.836 43.2101 114.185 43.4858 113.436 43.4858H113.367C112.618 43.4858 111.968 43.2101 111.418 42.6596C110.867 42.1401 110.592 41.4898 110.592 40.7099C108.848 42.5607 106.317 43.4858 102.998 43.4858C99.3584 43.4858 96.2463 42.1936 93.6619 39.6088C91.0771 37.0247 89.7852 33.9121 89.7852 30.2719C89.7852 26.6321 91.0771 23.5199 93.6619 20.9356C96.2463 18.351 99.3584 17.0586 102.998 17.0586C106.638 17.0586 109.751 18.351 112.335 20.9356Z" fill="#007BFF"/>
<path d="M132.224 17.0586C132.989 17.0586 133.647 17.3339 134.197 17.8844C134.732 18.4349 135 19.0927 135 19.8577V19.9029C135 20.6682 134.732 21.3179 134.197 21.8534C133.647 22.4033 132.989 22.679 132.224 22.679H130.917C129.662 22.679 128.6 23.115 127.728 23.9863C126.871 24.8581 126.436 25.9213 126.42 27.1753V40.7099C126.42 41.4898 126.145 42.1403 125.595 42.6596C125.044 43.2103 124.394 43.4856 123.644 43.4856H123.576C122.826 43.4856 122.177 43.2103 121.626 42.6596C121.075 42.1403 120.8 41.4898 120.8 40.7099V27.1753C120.831 24.3765 121.817 21.9906 123.759 20.018C125.732 18.045 128.118 17.0586 130.917 17.0586H132.224Z" fill="#007BFF"/>
<path d="M145.346 24.9041C143.878 26.3879 143.144 28.1768 143.144 30.2719C143.144 32.3828 143.878 34.1794 145.346 35.6632C146.83 37.1311 148.627 37.8653 150.737 37.8653C152.848 37.8653 154.637 37.1311 156.105 35.6632C157.588 34.1794 158.33 32.3828 158.33 30.2719C158.33 28.1768 157.588 26.3879 156.105 24.9041C154.621 23.4208 152.832 22.6788 150.737 22.6788C148.627 22.6788 146.83 23.4208 145.346 24.9041ZM160.073 20.9356C162.658 23.5199 163.951 26.6321 163.951 30.2719V40.7099C163.951 41.4898 163.675 42.1401 163.125 42.6596C162.574 43.2101 161.924 43.4858 161.175 43.4858H161.106C160.356 43.4858 159.707 43.2101 159.156 42.6596C158.606 42.1401 158.33 41.4898 158.33 40.7099C156.587 42.5607 154.055 43.4858 150.737 43.4858C147.097 43.4858 143.985 42.1936 141.4 39.6088C138.815 37.0247 137.523 33.9121 137.523 30.2719C137.523 26.6321 138.815 23.5199 141.4 20.9356C143.985 18.351 147.097 17.0586 150.737 17.0586C154.376 17.0586 157.489 18.351 160.073 20.9356Z" fill="#007BFF"/>
<path d="M175.65 22.6788C174.977 22.6788 174.411 22.9082 173.953 23.3673C173.494 23.8414 173.264 24.4071 173.264 25.0647C173.264 25.9821 173.708 26.6708 174.595 27.1293C174.901 27.298 176.178 27.6798 178.426 28.2762C180.246 28.7963 181.599 29.4771 182.487 30.3179C183.755 31.5264 184.391 33.2469 184.391 35.4799C184.391 37.682 183.61 39.5709 182.05 41.1459C180.475 42.7056 178.586 43.4858 176.384 43.4858H170.397C169.647 43.4858 168.997 43.2101 168.447 42.6596C167.896 42.1401 167.621 41.4898 167.621 40.7099V40.6641C167.621 39.8993 167.896 39.242 168.447 38.6914C168.997 38.1405 169.647 37.8653 170.397 37.8653H176.614C177.287 37.8653 177.852 37.6358 178.311 37.1769C178.77 36.7184 179 36.1527 179 35.4799C179 34.6388 178.564 34.0037 177.692 33.5752C177.462 33.4688 176.178 33.0861 173.838 32.4288C172.018 31.8933 170.664 31.1899 169.777 30.3179C168.508 29.0792 167.873 27.3282 167.873 25.0647C167.873 22.8624 168.653 20.9814 170.213 19.4215C171.788 17.8463 173.677 17.0586 175.88 17.0586H180.101C180.865 17.0586 181.523 17.3341 182.074 17.8844C182.624 18.4351 182.899 19.0929 182.899 19.8577V19.9031C182.899 20.683 182.624 21.3331 182.074 21.8532C181.523 22.4035 180.865 22.6788 180.101 22.6788H175.65Z" fill="#007BFF"/>
<path d="M190.906 7.65239C191.655 7.65239 192.304 7.91995 192.855 8.45526C193.406 9.00578 193.681 9.66353 193.681 10.4279V17.0578H197.122C197.871 17.0578 198.522 17.3331 199.072 17.8836C199.622 18.4341 199.898 19.0919 199.898 19.8568V19.902C199.898 20.6822 199.622 21.3325 199.072 21.8526C198.522 22.4027 197.871 22.6779 197.122 22.6779H193.681V36.2818C193.681 36.7253 193.834 37.1001 194.14 37.4057C194.446 37.7116 194.828 37.8646 195.287 37.8646H197.122C197.871 37.8646 198.522 38.1399 199.072 38.6904C199.622 39.2411 199.898 39.8985 199.898 40.663V40.7091C199.898 41.489 199.622 42.1395 199.072 42.659C198.522 43.2095 197.871 43.4848 197.122 43.4848H195.287C193.298 43.4848 191.594 42.7816 190.171 41.3743C188.764 39.9522 188.061 38.2548 188.061 36.2818V10.4279C188.061 9.66353 188.336 9.00578 188.887 8.45526C189.437 7.91995 190.087 7.65239 190.836 7.65239H190.906Z" fill="#007BFF"/>
<path d="M206.803 17.0582C207.583 17.0582 208.233 17.3334 208.753 17.8839C209.303 18.4345 209.579 19.0922 209.579 19.8572V40.7094C209.579 41.4894 209.303 42.1398 208.753 42.6591C208.233 43.2098 207.583 43.4851 206.803 43.4851H206.757C205.992 43.4851 205.335 43.2098 204.785 42.6591C204.234 42.1398 203.959 41.4894 203.959 40.7094V19.8572C203.959 19.0922 204.234 18.4345 204.785 17.8839C205.335 17.3334 205.992 17.0582 206.757 17.0582H206.803ZM206.78 14.0757C205.893 14.0757 205.136 13.7627 204.509 13.1352C203.882 12.5085 203.568 11.7516 203.568 10.8642C203.568 9.99283 203.882 9.24326 204.509 8.61633C205.136 7.98919 205.893 7.67583 206.78 7.67583C207.652 7.67583 208.401 7.98919 209.028 8.61633C209.67 9.22786 209.992 9.97742 209.992 10.8642C209.992 11.7666 209.67 12.5239 209.028 13.1352C208.401 13.7627 207.652 14.0757 206.78 14.0757Z" fill="#007BFF"/>
<path d="M81.3485 33.7323C81.0303 34.2285 80.727 34.7389 80.3452 35.1568C79.5765 35.9996 78.6263 36.6969 77.5974 37.174C76.4796 37.6929 75.2324 37.967 73.9907 37.967C69.246 37.967 65.3861 34.1071 65.3861 29.363C65.3861 24.6183 69.246 20.758 73.9907 20.758C76.3156 20.758 78.5762 21.7232 80.1929 23.4054C80.676 23.9079 81.0578 24.4924 81.4123 25.0898C81.7306 25.6259 81.9742 26.1768 82.526 26.517C83.1158 26.8802 83.8198 27.0498 84.5075 27.0723C85.6306 27.109 87.3193 26.6809 87.4261 25.3158C87.4624 24.85 87.2451 24.4148 87.0655 23.9983L87.0051 23.8564C86.742 23.2376 86.4321 22.6327 86.0838 22.0573C85.3896 20.9127 84.5375 19.8714 83.55 18.9629C81.5311 17.1056 79.043 15.8836 76.3551 15.4288C75.579 15.297 74.7836 15.2305 73.9907 15.2305C66.1981 15.2305 59.8584 21.57 59.8584 29.363C59.8584 37.155 66.1981 43.4947 73.9907 43.4947C76.7708 43.4947 79.4636 42.6841 81.778 41.1503C84.0443 39.6483 85.8218 37.5446 86.9189 35.0666C86.9189 35.0666 87.0177 34.8512 87.0177 34.851C87.389 34.0363 87.7405 33.1171 87.0288 32.3866C86.4892 31.8334 85.6112 31.5669 84.8531 31.5754C84.1045 31.5835 83.3493 31.7963 82.7157 32.1967C82.1319 32.5654 81.7294 33.1386 81.3485 33.7323Z" fill="#007BFF"/>
<path d="M20.4606 46.0102C19.7751 45.7122 19.1113 45.3735 18.4722 44.9971C18.461 44.9904 18.4491 44.9841 18.4379 44.9777C18.4314 44.9738 18.4217 44.9675 18.4108 44.9604C17.7206 44.5504 17.0592 44.0972 16.4313 43.6028C16.4313 43.6028 16.4313 43.6028 16.4311 43.6028C16.306 43.5043 16.1826 43.4037 16.0599 43.3022C16.0259 43.2738 15.9924 43.2448 15.9586 43.2162C15.8702 43.1419 15.7824 43.0669 15.6955 42.9908C15.6547 42.9554 15.6144 42.9193 15.5743 42.8832C15.4946 42.8123 15.4156 42.7409 15.3369 42.6686C15.2954 42.6303 15.254 42.5915 15.2127 42.5528C15.1354 42.4803 15.059 42.4069 14.9828 42.3329C14.9437 42.2946 14.9042 42.2565 14.8652 42.218C14.7846 42.1381 14.7049 42.057 14.6257 41.9758C14.5934 41.9427 14.5608 41.9101 14.5288 41.8766C14.4248 41.7682 14.3222 41.6587 14.2209 41.5477C14.2148 41.541 14.2085 41.5347 14.2026 41.528C14.0932 41.408 13.9857 41.2862 13.8795 41.1636C13.8562 41.1364 13.8335 41.1088 13.8104 41.0817C13.7301 40.9876 13.6505 40.8932 13.572 40.7973C13.5386 40.7565 13.5062 40.7154 13.4731 40.6747C13.4056 40.5907 13.3385 40.5064 13.2725 40.4215C13.2376 40.3763 13.2027 40.3305 13.1681 40.2851C13.1046 40.202 13.0422 40.1185 12.9804 40.0341C12.9463 39.9879 12.9123 39.9417 12.8786 39.8949C12.8158 39.8077 12.754 39.7198 12.6928 39.6316C12.6626 39.588 12.6319 39.5446 12.6019 39.5006C12.5326 39.3987 12.4643 39.2957 12.3968 39.1923C12.377 39.1617 12.3563 39.1315 12.3366 39.1009C12.2489 38.9647 12.1627 38.8273 12.0786 38.6889C12.0689 38.6724 12.0593 38.656 12.0496 38.6396C11.977 38.519 11.9053 38.3976 11.8354 38.2752C11.8102 38.2314 11.7859 38.187 11.7612 38.1428C11.7075 38.0469 11.6541 37.9508 11.6021 37.854C11.5745 37.8021 11.5473 37.75 11.5198 37.6981C11.4719 37.6071 11.4247 37.5155 11.3783 37.4234C11.3511 37.3691 11.324 37.3146 11.2972 37.2601C11.2516 37.1674 11.2072 37.0744 11.1632 36.9809C11.1381 36.9276 11.1128 36.8743 11.0884 36.8206C11.042 36.7199 10.9972 36.6183 10.9528 36.5166C10.9326 36.4702 10.9117 36.4241 10.8918 36.3773C10.832 36.2371 10.7734 36.0958 10.7169 35.9535C10.7141 35.9454 10.7106 35.9377 10.7074 35.9298C10.6476 35.7786 10.59 35.6261 10.5343 35.4731C10.5182 35.4291 10.5032 35.3847 10.4874 35.3407C10.4487 35.2321 10.4106 35.123 10.3739 35.0136C10.3549 34.957 10.337 34.9003 10.3186 34.8435C10.2868 34.7446 10.2552 34.6457 10.2247 34.5462C10.2065 34.4858 10.1885 34.4252 10.1708 34.3646C10.142 34.2667 10.1143 34.1688 10.0871 34.0703C10.0703 34.0092 10.0537 33.948 10.0375 33.8866C10.0105 33.7849 9.98476 33.6825 9.95962 33.5799C9.94564 33.5226 9.93104 33.4654 9.91766 33.4076C9.88949 33.2883 9.86314 33.1681 9.8376 33.0477C9.82868 33.0069 9.81915 32.9666 9.81084 32.9256C9.7774 32.7643 9.74618 32.6021 9.7172 32.4392C9.71092 32.4029 9.70544 32.3662 9.69896 32.3299C9.67727 32.2032 9.65639 32.0761 9.63713 31.9486C9.62842 31.8899 9.62072 31.8311 9.61241 31.7721C9.59741 31.6657 9.58302 31.5589 9.56984 31.4518C9.56214 31.3872 9.55484 31.3223 9.54775 31.2575C9.53619 31.1545 9.52545 31.0515 9.51572 30.9484C9.50944 30.8819 9.50376 30.8158 9.49809 30.7493C9.48937 30.6447 9.48187 30.5397 9.47498 30.4347C9.47072 30.3703 9.46626 30.306 9.46261 30.2413C9.45633 30.1272 9.45167 30.0127 9.44741 29.898C9.44559 29.8429 9.44275 29.7879 9.44133 29.7326C9.43667 29.5627 9.43363 29.3923 9.43363 29.2214C9.43363 29.0503 9.43667 28.8801 9.44133 28.7102C9.44275 28.6549 9.44559 28.5999 9.44741 28.5448C9.45167 28.4301 9.45633 28.3155 9.46261 28.2014C9.46626 28.1368 9.47072 28.0723 9.47498 28.0079C9.48187 27.9031 9.48937 27.7983 9.49809 27.6937C9.50356 27.6272 9.50944 27.5607 9.51592 27.4942C9.52545 27.3911 9.53619 27.2881 9.54775 27.1853C9.55484 27.1205 9.56214 27.0558 9.56984 26.9909C9.58302 26.8837 9.59741 26.7769 9.61241 26.6703C9.62072 26.6115 9.62842 26.5527 9.63713 26.4943C9.65619 26.3668 9.67727 26.24 9.69896 26.1133C9.70524 26.0768 9.71092 26.0399 9.7172 26.0036C9.74618 25.8406 9.7774 25.6783 9.81084 25.5167C9.81915 25.4764 9.82868 25.4365 9.83719 25.3961C9.86294 25.2753 9.88949 25.1549 9.91766 25.0351C9.93104 24.9774 9.94564 24.9202 9.95962 24.8628C9.98476 24.7601 10.0105 24.6577 10.0375 24.556C10.0537 24.4946 10.0703 24.4335 10.0871 24.3725C10.1143 24.2742 10.1418 24.1761 10.1706 24.0784C10.1885 24.0176 10.2065 23.957 10.2249 23.8964C10.2554 23.7971 10.2868 23.698 10.3186 23.5995C10.3368 23.5425 10.3549 23.4857 10.3739 23.4294C10.4106 23.3197 10.4489 23.2107 10.4874 23.102C10.5032 23.0579 10.5182 23.0137 10.5343 22.9697C10.59 22.8164 10.6476 22.664 10.7074 22.5128C10.7102 22.5057 10.7132 22.4986 10.7161 22.4915C10.773 22.3484 10.8316 22.2063 10.8918 22.0651C10.9117 22.0188 10.9324 21.973 10.9524 21.927C10.9968 21.8249 11.0418 21.7231 11.0884 21.622C11.1128 21.5685 11.1381 21.5153 11.1632 21.462C11.2072 21.3684 11.2516 21.2752 11.2972 21.1825C11.324 21.128 11.3511 21.0739 11.3783 21.0196C11.4247 20.9273 11.4721 20.8357 11.52 20.7443C11.5473 20.6926 11.5743 20.6407 11.6021 20.589C11.6541 20.4919 11.7077 20.3957 11.7616 20.2996C11.7861 20.2556 11.8102 20.2114 11.8354 20.1676C11.9057 20.0446 11.9776 19.9224 12.0508 19.801C12.0601 19.7855 12.0691 19.7697 12.0786 19.7541C12.1627 19.6155 12.2489 19.4779 12.3368 19.3416C12.3561 19.3114 12.3761 19.2823 12.3956 19.2523C12.4635 19.1483 12.532 19.0445 12.6019 18.9419C12.6319 18.8982 12.6624 18.855 12.6926 18.8114C12.754 18.723 12.816 18.6349 12.8788 18.5475C12.9123 18.5013 12.9461 18.4551 12.98 18.4091C13.0422 18.3245 13.1048 18.2408 13.1683 18.1573C13.2027 18.1121 13.2374 18.0669 13.2723 18.0217C13.3385 17.9364 13.406 17.8516 13.4739 17.7673C13.5064 17.7268 13.5386 17.686 13.5716 17.6459C13.6505 17.5494 13.7308 17.4542 13.8116 17.3597C13.8343 17.3331 13.8564 17.3062 13.8793 17.2796C13.9855 17.1566 14.0932 17.0348 14.2026 16.9146C14.2081 16.9087 14.2136 16.9028 14.219 16.8969C14.321 16.7853 14.4246 16.6748 14.5292 16.5657C14.5606 16.5331 14.5924 16.5009 14.624 16.4685C14.7039 16.3864 14.7844 16.3047 14.8658 16.2242C14.9042 16.1861 14.9431 16.1486 14.9818 16.1107C15.0584 16.0365 15.1354 15.9625 15.2131 15.8896C15.2542 15.851 15.2952 15.8127 15.3365 15.7746C15.4154 15.7021 15.4946 15.6303 15.5747 15.559C15.6148 15.5233 15.6547 15.4874 15.6951 15.4521C15.7824 15.3757 15.8708 15.3003 15.9596 15.2255C15.993 15.1976 16.0261 15.1688 16.0595 15.141C17.4401 13.9946 18.9913 13.0472 20.669 12.3428C20.7221 12.2994 20.7758 12.2569 20.8275 12.2113C22.7614 10.5088 20.6935 8.4683 18.5456 8.81166C17.0395 9.05266 15.6079 10.0122 14.399 10.8929C13.4579 11.5786 12.5695 12.3367 11.7441 13.158C10.0891 14.8049 8.68974 16.7062 7.61221 18.7773C5.93938 21.9933 5.06738 25.5972 5.06738 29.2214C5.06738 34.0378 6.62165 38.7859 9.48187 42.6621C10.4424 43.964 11.5421 45.1627 12.756 46.2321C13.3724 46.7752 14.018 47.2845 14.6893 47.7578C16.0342 48.7054 17.8799 49.7649 19.5611 49.9382C21.016 50.088 22.789 49.155 21.9158 47.3986C21.6067 46.777 21.0665 46.356 20.4606 46.0102Z" fill="#007BFF"/>
<path d="M27.7191 35.0358C24.5852 35.0358 22.0445 32.4952 22.0445 29.3612C22.0445 26.2271 24.5852 23.6865 27.7191 23.6865C30.8532 23.6865 33.3937 26.2271 33.3937 29.3612C33.3937 32.4952 30.8532 35.0358 27.7191 35.0358ZM47.8738 18.8853C46.2669 15.7768 43.9353 13.056 41.113 10.9873C39.7227 9.96816 36.3573 7.78068 34.7236 9.42615C34.5994 9.55122 34.5013 9.69756 34.4281 9.85648C34.2787 10.1814 34.2347 10.559 34.2917 10.9145C34.4163 11.6929 34.8817 12.2489 35.4705 12.7003C37.1523 13.4884 38.7155 14.5322 40.1062 15.8114C41.385 16.9881 42.4888 18.3364 43.3876 19.8187C43.8392 20.564 44.2405 21.3478 44.5805 22.1485L44.6632 22.3413C45.015 23.1579 45.4529 24.1744 45.0651 25.2177C44.5636 26.5656 43.1085 26.9868 41.9691 26.8084C41.3005 26.7036 40.6824 26.4081 40.1818 25.9539C39.6013 25.4273 39.2703 24.6647 38.9784 23.9922C38.8385 23.6699 38.7064 23.3653 38.5584 23.1056C38.0227 22.1651 37.4085 21.3318 36.7329 20.6287C34.3867 18.187 31.1055 16.7866 27.7302 16.7866C20.8437 16.7866 15.2412 22.3893 15.2412 29.2758C15.2412 36.1622 20.8437 41.7649 27.7302 41.7649C29.5318 41.7649 31.3427 41.3666 32.9669 40.6132C34.4601 39.9206 35.8388 38.9085 36.9539 37.6869C37.5123 37.0749 38.0119 36.4056 38.4384 35.6972C38.607 35.4173 38.7491 35.1045 38.8999 34.7733C38.9567 34.6483 39.0139 34.523 39.0724 34.3989C39.2555 34.0118 39.4873 33.5634 39.8188 33.1716C40.7953 32.0181 42.3861 31.6107 43.6868 32.1813C44.3281 32.4626 44.8109 32.9633 45.0458 33.5908C45.4222 34.5964 44.9708 35.5715 44.6082 36.3547C44.5604 36.4583 44.5134 36.5601 44.4692 36.6594C43.0485 39.8685 40.7463 42.5929 37.8115 44.5379C37.4168 44.7994 37.0133 45.0437 36.6024 45.2725C36.2152 45.5034 35.7829 45.7695 35.531 45.9937C34.7463 46.6916 33.8839 47.6609 34.3077 48.7996C34.8665 50.3012 36.6928 49.9586 37.8832 49.4948C39.4501 48.8845 40.8446 47.8315 42.1218 46.7803C43.4713 45.6694 44.6923 44.4031 45.753 43.0137C47.9107 40.1875 49.3868 36.8603 50.0238 33.3618C50.2691 32.0144 50.3913 30.645 50.3913 29.2758C50.3913 25.6719 49.529 22.0877 47.8738 18.8853Z" fill="#007BFF"/>
</svg>
